<mxfile host="app.diagrams.net" modified="2020-04-12T21:51:44.552Z" agent="5.0 (Macintosh; Intel Mac OS X 10_15_3) AppleWebKit/537.36 (KHTML, like Gecko) Chrome/80.0.3987.163 Safari/537.36" etag="kpgpFzmlaasMknXKAQVE" version="12.9.11" type="github">
  <diagram id="brjJ__DVkyhJXGj2bPSd" name="Page-1">
    <mxGraphModel dx="2377" dy="1337" grid="1" gridSize="10" guides="1" tooltips="1" connect="1" arrows="1" fold="1" page="1" pageScale="1" pageWidth="1075" pageHeight="925" math="0" shadow="0" extFonts="Bangers^https://fonts.googleapis.com/css?family=Bangers">
      <root>
        <mxCell id="0" />
        <mxCell id="1" parent="0" />
        <mxCell id="z6aTn6MhkOiLtaZtnljx-1" value="Main Scheme" style="rounded=1;whiteSpace=wrap;html=1;aspect=fixed;fontFamily=Bangers;FType=g;fontSize=39;fillColor=#FF0000;strokeWidth=4;shadow=0;comic=0;glass=0;direction=south;" parent="1" vertex="1">
          <mxGeometry x="335" y="10" width="360" height="240" as="geometry" />
        </mxCell>
        <mxCell id="z6aTn6MhkOiLtaZtnljx-10" value="" style="triangle;whiteSpace=wrap;html=1;direction=north;rounded=1;arcSize=50;strokeWidth=3;fillColor=#FFFF00;aspect=fixed;" parent="1" vertex="1">
          <mxGeometry x="710" y="55" width="150" height="150" as="geometry" />
        </mxCell>
        <mxCell id="u0_J46fvG1cNyRP4weSW-3" value="" style="group" vertex="1" connectable="0" parent="1">
          <mxGeometry x="365" y="280" width="350" height="200" as="geometry" />
        </mxCell>
        <mxCell id="z6aTn6MhkOiLtaZtnljx-2" value="Side Scheme" style="rounded=1;whiteSpace=wrap;html=1;aspect=fixed;fontFamily=Bangers;FType=g;fontSize=39;fillColor=#FF0000;strokeWidth=4;shadow=0;comic=0;glass=0;direction=south;" parent="u0_J46fvG1cNyRP4weSW-3" vertex="1">
          <mxGeometry width="300" height="200" as="geometry" />
        </mxCell>
        <mxCell id="u0_J46fvG1cNyRP4weSW-1" value="" style="triangle;whiteSpace=wrap;html=1;direction=north;rounded=1;arcSize=50;strokeWidth=3;fillColor=#FFFF00;aspect=fixed;" vertex="1" parent="u0_J46fvG1cNyRP4weSW-3">
          <mxGeometry x="275" y="125" width="75" height="75" as="geometry" />
        </mxCell>
        <mxCell id="u0_J46fvG1cNyRP4weSW-4" value="" style="group" vertex="1" connectable="0" parent="1">
          <mxGeometry x="10" y="280" width="350" height="200" as="geometry" />
        </mxCell>
        <mxCell id="u0_J46fvG1cNyRP4weSW-5" value="Side Scheme" style="rounded=1;whiteSpace=wrap;html=1;aspect=fixed;fontFamily=Bangers;FType=g;fontSize=39;fillColor=#FF0000;strokeWidth=4;shadow=0;comic=0;glass=0;direction=south;" vertex="1" parent="u0_J46fvG1cNyRP4weSW-4">
          <mxGeometry width="300" height="200" as="geometry" />
        </mxCell>
        <mxCell id="u0_J46fvG1cNyRP4weSW-6" value="" style="triangle;whiteSpace=wrap;html=1;direction=north;rounded=1;arcSize=50;strokeWidth=3;fillColor=#FFFF00;aspect=fixed;" vertex="1" parent="u0_J46fvG1cNyRP4weSW-4">
          <mxGeometry x="275" y="125" width="75" height="75" as="geometry" />
        </mxCell>
        <mxCell id="u0_J46fvG1cNyRP4weSW-7" value="" style="group" vertex="1" connectable="0" parent="1">
          <mxGeometry x="720" y="280" width="350" height="200" as="geometry" />
        </mxCell>
        <mxCell id="u0_J46fvG1cNyRP4weSW-8" value="Side Scheme" style="rounded=1;whiteSpace=wrap;html=1;aspect=fixed;fontFamily=Bangers;FType=g;fontSize=39;fillColor=#FF0000;strokeWidth=4;shadow=0;comic=0;glass=0;direction=south;" vertex="1" parent="u0_J46fvG1cNyRP4weSW-7">
          <mxGeometry width="300" height="200" as="geometry" />
        </mxCell>
        <mxCell id="u0_J46fvG1cNyRP4weSW-9" value="" style="triangle;whiteSpace=wrap;html=1;direction=north;rounded=1;arcSize=50;strokeWidth=3;fillColor=#FFFF00;aspect=fixed;" vertex="1" parent="u0_J46fvG1cNyRP4weSW-7">
          <mxGeometry x="275" y="125" width="75" height="75" as="geometry" />
        </mxCell>
        <mxCell id="u0_J46fvG1cNyRP4weSW-10" value="" style="group" vertex="1" connectable="0" parent="1">
          <mxGeometry x="365" y="500" width="350" height="200" as="geometry" />
        </mxCell>
        <mxCell id="u0_J46fvG1cNyRP4weSW-11" value="Side Scheme" style="rounded=1;whiteSpace=wrap;html=1;aspect=fixed;fontFamily=Bangers;FType=g;fontSize=39;fillColor=#FF0000;strokeWidth=4;shadow=0;comic=0;glass=0;direction=south;" vertex="1" parent="u0_J46fvG1cNyRP4weSW-10">
          <mxGeometry width="300" height="200" as="geometry" />
        </mxCell>
        <mxCell id="u0_J46fvG1cNyRP4weSW-12" value="" style="triangle;whiteSpace=wrap;html=1;direction=north;rounded=1;arcSize=50;strokeWidth=3;fillColor=#FFFF00;aspect=fixed;" vertex="1" parent="u0_J46fvG1cNyRP4weSW-10">
          <mxGeometry x="275" y="125" width="75" height="75" as="geometry" />
        </mxCell>
        <mxCell id="u0_J46fvG1cNyRP4weSW-13" value="" style="group" vertex="1" connectable="0" parent="1">
          <mxGeometry x="10" y="500" width="350" height="200" as="geometry" />
        </mxCell>
        <mxCell id="u0_J46fvG1cNyRP4weSW-14" value="Side Scheme" style="rounded=1;whiteSpace=wrap;html=1;aspect=fixed;fontFamily=Bangers;FType=g;fontSize=39;fillColor=#FF0000;strokeWidth=4;shadow=0;comic=0;glass=0;direction=south;" vertex="1" parent="u0_J46fvG1cNyRP4weSW-13">
          <mxGeometry width="300" height="200" as="geometry" />
        </mxCell>
        <mxCell id="u0_J46fvG1cNyRP4weSW-15" value="" style="triangle;whiteSpace=wrap;html=1;direction=north;rounded=1;arcSize=50;strokeWidth=3;fillColor=#FFFF00;aspect=fixed;" vertex="1" parent="u0_J46fvG1cNyRP4weSW-13">
          <mxGeometry x="275" y="125" width="75" height="75" as="geometry" />
        </mxCell>
        <mxCell id="u0_J46fvG1cNyRP4weSW-16" value="" style="group" vertex="1" connectable="0" parent="1">
          <mxGeometry x="720" y="500" width="350" height="200" as="geometry" />
        </mxCell>
        <mxCell id="u0_J46fvG1cNyRP4weSW-17" value="Side Scheme" style="rounded=1;whiteSpace=wrap;html=1;aspect=fixed;fontFamily=Bangers;FType=g;fontSize=39;fillColor=#FF0000;strokeWidth=4;shadow=0;comic=0;glass=0;direction=south;" vertex="1" parent="u0_J46fvG1cNyRP4weSW-16">
          <mxGeometry width="300" height="200" as="geometry" />
        </mxCell>
        <mxCell id="u0_J46fvG1cNyRP4weSW-18" value="" style="triangle;whiteSpace=wrap;html=1;direction=north;rounded=1;arcSize=50;strokeWidth=3;fillColor=#FFFF00;aspect=fixed;" vertex="1" parent="u0_J46fvG1cNyRP4weSW-16">
          <mxGeometry x="275" y="125" width="75" height="75" as="geometry" />
        </mxCell>
        <mxCell id="u0_J46fvG1cNyRP4weSW-19" value="" style="group" vertex="1" connectable="0" parent="1">
          <mxGeometry x="365" y="720" width="350" height="200" as="geometry" />
        </mxCell>
        <mxCell id="u0_J46fvG1cNyRP4weSW-20" value="Side Scheme" style="rounded=1;whiteSpace=wrap;html=1;aspect=fixed;fontFamily=Bangers;FType=g;fontSize=39;fillColor=#FF0000;strokeWidth=4;shadow=0;comic=0;glass=0;direction=south;" vertex="1" parent="u0_J46fvG1cNyRP4weSW-19">
          <mxGeometry width="300" height="200" as="geometry" />
        </mxCell>
        <mxCell id="u0_J46fvG1cNyRP4weSW-21" value="" style="triangle;whiteSpace=wrap;html=1;direction=north;rounded=1;arcSize=50;strokeWidth=3;fillColor=#FFFF00;aspect=fixed;" vertex="1" parent="u0_J46fvG1cNyRP4weSW-19">
          <mxGeometry x="275" y="125" width="75" height="75" as="geometry" />
        </mxCell>
        <mxCell id="u0_J46fvG1cNyRP4weSW-22" value="" style="group" vertex="1" connectable="0" parent="1">
          <mxGeometry x="10" y="720" width="350" height="200" as="geometry" />
        </mxCell>
        <mxCell id="u0_J46fvG1cNyRP4weSW-23" value="Side Scheme" style="rounded=1;whiteSpace=wrap;html=1;aspect=fixed;fontFamily=Bangers;FType=g;fontSize=39;fillColor=#FF0000;strokeWidth=4;shadow=0;comic=0;glass=0;direction=south;" vertex="1" parent="u0_J46fvG1cNyRP4weSW-22">
          <mxGeometry width="300" height="200" as="geometry" />
        </mxCell>
        <mxCell id="u0_J46fvG1cNyRP4weSW-24" value="" style="triangle;whiteSpace=wrap;html=1;direction=north;rounded=1;arcSize=50;strokeWidth=3;fillColor=#FFFF00;aspect=fixed;" vertex="1" parent="u0_J46fvG1cNyRP4weSW-22">
          <mxGeometry x="275" y="125" width="75" height="75" as="geometry" />
        </mxCell>
        <mxCell id="u0_J46fvG1cNyRP4weSW-25" value="" style="group" vertex="1" connectable="0" parent="1">
          <mxGeometry x="720" y="720" width="350" height="200" as="geometry" />
        </mxCell>
        <mxCell id="u0_J46fvG1cNyRP4weSW-26" value="Side Scheme" style="rounded=1;whiteSpace=wrap;html=1;aspect=fixed;fontFamily=Bangers;FType=g;fontSize=39;fillColor=#FF0000;strokeWidth=4;shadow=0;comic=0;glass=0;direction=south;" vertex="1" parent="u0_J46fvG1cNyRP4weSW-25">
          <mxGeometry width="300" height="200" as="geometry" />
        </mxCell>
        <mxCell id="u0_J46fvG1cNyRP4weSW-27" value="" style="triangle;whiteSpace=wrap;html=1;direction=north;rounded=1;arcSize=50;strokeWidth=3;fillColor=#FFFF00;aspect=fixed;" vertex="1" parent="u0_J46fvG1cNyRP4weSW-25">
          <mxGeometry x="275" y="125" width="75" height="75" as="geometry" />
        </mxCell>
      </root>
    </mxGraphModel>
  </diagram>
</mxfile>
